<?xml version="1.0" encoding="UTF-8"?>
<svg id="Capa_2" data-name="Capa 2" xmlns="http://www.w3.org/2000/svg" viewBox="0 0 305.4 32.89">
  <defs>
    <style>
      .cls-1 {
        fill: #6b39f1;
      }

      .cls-2 {
        fill: #fff;
      }

      .cls-3 {
        fill: none;
        stroke: #fff;
        stroke-miterlimit: 10;
        stroke-width: 1.51px;
      }

      .cls-4 {
        fill: #6a38ee;
      }

      .cls-5 {
        fill: #6838ea;
      }
    </style>
  </defs>
  <g id="Capa_1-2" data-name="Capa 1">
    <g>
      <g>
        <path class="cls-2" d="M232.85,25.81v-5.09h5.79v4.31c0,.43.31.74.7.74h1.51c.43,0,.74-.31.74-.74v-4.62c0-.58-.19-.85-.78-1.05l-4.54-1.4c-2.17-.66-3.42-2.6-3.42-5.2v-5.67c0-2.56,2.06-4.62,4.62-4.62h5.24c2.6,0,4.66,2.06,4.66,4.62v5.09h-5.79v-4.31c0-.43-.31-.74-.74-.74h-1.51c-.39,0-.7.31-.7.74v4.35c0,.62.19.89.89,1.09l3.81,1.17c2.91.89,4.04,2.37,4.04,5.51v5.83c0,2.56-2.06,4.62-4.66,4.62h-5.24c-2.56,0-4.62-2.06-4.62-4.62Z"/>
        <path class="cls-2" d="M261.82,7.32h-4.19v22.91h-5.79V7.32h-4.16V2.66h14.14v4.66Z"/>
        <path class="cls-2" d="M262.14,25.81V7.09c0-2.56,2.06-4.62,4.62-4.62h5.24c2.6,0,4.66,2.06,4.66,4.62v18.72c0,2.56-2.06,4.62-4.66,4.62h-5.24c-2.56,0-4.62-2.06-4.62-4.62ZM270.14,25.77c.43,0,.74-.31.74-.74V7.86c0-.43-.31-.74-.74-.74h-1.51c-.39,0-.7.31-.7.74v17.17c0,.43.31.74.7.74h1.51Z"/>
        <path class="cls-2" d="M289.32,17.11c1.9.5,2.95,1.86,2.95,3.96v9.17h-5.79v-10.25c0-.39-.31-.7-.74-.7h-2.21v10.95h-5.79V2.66h9.87c2.6,0,4.66,2.02,4.66,4.62v5.51c0,2.02-1.2,3.65-2.95,4.31ZM283.54,7.32v7.3h2.21c.43,0,.74-.31.74-.7v-5.9c0-.39-.31-.7-.74-.7h-2.21Z"/>
        <path class="cls-2" d="M299.11,7.32v6.56h5.75v4.66h-5.75v7.03h6.29v4.66h-12.08V2.66h12.08v4.66h-6.29Z"/>
      </g>
      <line class="cls-3" x1="224.64" x2="224.64" y2="32.89"/>
      <g>
        <g>
          <path class="cls-5" d="M.21,20.88h5.62c.23,1.18-.61,5.16.66,5.58,4.28-.28,9.46.57,13.62.08.4-.05,1.39-.18,1.39-.62v-9.05c2.3-.18,5.27,2.9,5.6,5.05.79,5.13-.35,9.98-6.2,10.63-2.99.34-12.39.42-15.24-.03-2.09-.33-5.45-3.3-5.45-5.41v-6.23Z"/>
          <path class="cls-4" d="M27.13,11.63h-5.62c-.34-1.57.83-4.94-.78-5.44-1.2-.37-13.23-.38-14.08.02-.19.09-.81.73-.81.8v9.05C-1.88,14.22-2.2,1.11,6.42.35c3.39-.3,12.48-.45,15.66.04,1.84.28,5.05,3.21,5.05,5v6.23Z"/>
        </g>
        <path class="cls-1" d="M20.67,16.08l-2.18.57c-2.23.58-3.92,2.4-4.34,4.67l-.38,2.07-.38-2.07c-.42-2.26-2.11-4.08-4.34-4.67l-2.18-.57,2.19-.56c2.23-.57,3.92-2.37,4.36-4.63l.36-1.84.35,1.84c.43,2.26,2.13,4.06,4.36,4.63l2.19.56Z"/>
      </g>
      <g>
        <path class="cls-2" d="M36.53,20.98c0-.47.26-.73.73-.73h2.12c.47,0,.73.26.73.73.18,3.4,1.46,4.49,5.07,4.49h6.97c3.98,0,5.33-.91,5.33-3.87s-1.35-3.43-4.82-3.69l-8-.66c-5.62-.44-7.96-2.01-7.96-6.79s2.26-7.3,8.87-7.3h6.43c6.1,0,8.43,2.48,8.65,7.96,0,.47-.26.73-.73.73h-2.12c-.47,0-.73-.26-.73-.73-.18-3.4-1.46-4.49-5.08-4.49h-6.39c-4.05,0-5.37.88-5.37,3.87,0,2.77,1.31,3.32,4.78,3.61l8,.62c5.59.44,8,2.12,8,6.86s-2.26,7.34-8.87,7.34h-6.97c-6.1,0-8.43-2.48-8.65-7.96Z"/>
        <path class="cls-2" d="M64.67,28.21V3.89c0-.47.26-.73.73-.73h2.12c.47,0,.73.26.73.73v10.26h16.5V3.89c0-.47.26-.73.73-.73h2.15c.47,0,.73.26.73.73v24.32c0,.47-.26.73-.73.73h-2.15c-.47,0-.73-.26-.73-.73v-10.73h-16.5v10.73c0,.47-.26.73-.73.73h-2.12c-.47,0-.73-.26-.73-.73Z"/>
        <path class="cls-2" d="M92.93,20.07V3.89c0-.47.26-.73.73-.73h2.12c.47,0,.73.26.73.73v16.28c0,4.13,1.42,5.29,5.07,5.29h7.89c3.65,0,5.04-1.17,5.04-5.29V3.89c0-.47.26-.73.73-.73h2.15c.47,0,.73.26.73.73v16.17c0,5.66-2.41,8.87-8.65,8.87h-7.89c-6.28,0-8.65-3.21-8.65-8.87Z"/>
        <path class="cls-2" d="M122.68,28.21V3.89c0-.47.26-.73.73-.73h19.75c.47,0,.73.26.73.73v2.01c0,.47-.26.73-.73.73h-16.9v7.48h11.46c.47,0,.73.26.73.73v1.9c0,.47-.26.73-.73.73h-11.46v10.73c0,.47-.26.73-.73.73h-2.12c-.47,0-.73-.26-.73-.73Z"/>
        <path class="cls-2" d="M146.74,28.21V3.89c0-.47.26-.73.73-.73h19.75c.47,0,.73.26.73.73v2.01c0,.47-.26.73-.73.73h-16.9v7.48h11.46c.47,0,.73.26.73.73v1.9c0,.47-.26.73-.73.73h-11.46v10.73c0,.47-.26.73-.73.73h-2.12c-.47,0-.73-.26-.73-.73Z"/>
        <path class="cls-2" d="M170.8,28.21V3.89c0-.47.26-.73.73-.73h2.12c.47,0,.73.26.73.73v21.58h16.61c.47,0,.73.26.73.73v2.01c0,.47-.26.73-.73.73h-19.46c-.47,0-.73-.26-.73-.73Z"/>
        <path class="cls-2" d="M194.27,28.21V3.89c0-.47.26-.73.73-.73h20.34c.47,0,.73.26.73.73v2.01c0,.47-.26.73-.73.73h-17.49v7.48h11.9c.47,0,.73.26.73.73v1.9c0,.47-.26.73-.73.73h-11.9v8h17.49c.47,0,.73.26.73.73v2.01c0,.47-.26.73-.73.73h-20.34c-.47,0-.73-.26-.73-.73Z"/>
      </g>
    </g>
  </g>
</svg>